<svg xmlns="http://www.w3.org/2000/svg" width="48" height="48" viewBox="0 0 48 48">
  <path d="M6 10c0-2.2 1.8-4 4-4h10l4 4h14c2.2 0 4 1.8 4 4v22c0 2.2-1.8 4-4 4H10c-2.2 0-4-1.8-4-4V10z" fill="#A78BFA" opacity="0.9"/>
  <path d="M6 16h36v22c0 2.2-1.8 4-4 4H10c-2.2 0-4-1.8-4-4V16z" fill="#8B5CF6"/>
  <rect x="18" y="22" width="12" height="10" rx="1" fill="none" stroke="white" stroke-width="1.5" opacity="0.7"/>
  <path d="M22 22v-2h4v2" fill="none" stroke="white" stroke-width="1.5" opacity="0.7"/>
</svg>
