<svg xmlns="http://www.w3.org/2000/svg" width="128" height="128" viewBox="0 0 128 128">
  <rect width="128" height="128" rx="8" fill="#1e1e2e"/>
  <rect x="8" y="8" width="112" height="24" rx="4" fill="#181825"/>
  <circle cx="18" cy="20" r="4" fill="#EF4444"/>
  <circle cx="30" cy="20" r="4" fill="#FBBF24"/>
  <circle cx="42" cy="20" r="4" fill="#34D399"/>
  <rect x="8" y="36" width="52" height="84" rx="4" fill="#181825"/>
  <rect x="64" y="36" width="56" height="20" rx="4" fill="#181825"/>
  <rect x="64" y="60" width="56" height="60" rx="4" fill="#181825"/>
  <rect x="14" y="46" width="36" height="4" rx="2" fill="#8B5CF6" opacity="0.6"/>
  <rect x="14" y="54" width="28" height="4" rx="2" fill="#64748B" opacity="0.4"/>
  <rect x="14" y="62" width="32" height="4" rx="2" fill="#64748B" opacity="0.4"/>
  <rect x="70" y="68" width="44" height="4" rx="2" fill="#64748B" opacity="0.4"/>
  <rect x="70" y="76" width="36" height="4" rx="2" fill="#64748B" opacity="0.4"/>
  <rect x="70" y="84" width="40" height="4" rx="2" fill="#64748B" opacity="0.4"/>
  <rect x="70" y="92" width="32" height="4" rx="2" fill="#64748B" opacity="0.4"/>
  <text x="64" y="120" text-anchor="middle" fill="#C4B5FD" font-family="sans-serif" font-size="10" font-weight="600">SuperLite</text>
</svg>
